HIERARCHY
ROOT Hips
{
  OFFSET -187.679 86.5976 -156.378
  CHANNELS 6 Xposition Yposition Zposition Zrotation Xrotation Yrotation
  JOINT LeftUpLeg
  {
    OFFSET 8.64259 1.95398 -2.38835
    CHANNELS 3 Zrotation Xrotation Yrotation
    JOINT LeftLeg
    {
      OFFSET 43.7702 0 0
      CHANNELS 3 Zrotation Xrotation Yrotation
      JOINT LeftFoot
      {
        OFFSET 40.6238 0 0
        CHANNELS 3 Zrotation Xrotation Yrotation
        JOINT LeftToeBase
        {
          OFFSET 12.7242 0 0
          CHANNELS 3 Zrotation Xrotation Yrotation
          End Site
          {
            OFFSET 0 0 0
          }
        }
      }
    }
  }
  JOINT RightUpLeg
  {
    OFFSET -8.2249 1.95398 -2.59336
    CHANNELS 3 Zrotation Xrotation Yrotation
    JOINT RightLeg
    {
      OFFSET 43.5653 0 0
      CHANNELS 3 Zrotation Xrotation Yrotation
      JOINT RightFoot
      {
        OFFSET 40.6238 0 0
        CHANNELS 3 Zrotation Xrotation Yrotation
        JOINT RightToeBase
        {
          OFFSET 12.7242 0 0
          CHANNELS 3 Zrotation Xrotation Yrotation
          End Site
          {
            OFFSET 0 0 0
          }
        }
      }
    }
  }
  JOINT Spine
  {
    OFFSET 0.165834 0.87714 6.61349
    CHANNELS 3 Zrotation Xrotation Yrotation
    JOINT Spine1
    {
      OFFSET 7.38963 1.71661e-005 0
      CHANNELS 3 Zrotation Xrotation Yrotation
      JOINT Spine2
      {
        OFFSET 11.9445 1.14441e-005 0
        CHANNELS 3 Zrotation Xrotation Yrotation
        JOINT Spine3
        {
          OFFSET 14.7254 4.19617e-005 0
          CHANNELS 3 Zrotation Xrotation Yrotation
          JOINT Spine4
          {
            OFFSET 10.9679 0 0
            CHANNELS 3 Zrotation Xrotation Yrotation
            JOINT RightShoulder
            {
              OFFSET 2.46616 -1.6653 3.69651
              CHANNELS 3 Zrotation Xrotation Yrotation
              JOINT RightArm
              {
                OFFSET 13.0012 0 0
                CHANNELS 3 Zrotation Xrotation Yrotation
                JOINT RightForeArm
                {
                  OFFSET 28.7848 1.52588e-005 0
                  CHANNELS 3 Zrotation Xrotation Yrotation
                  JOINT RightHand
                  {
                    OFFSET 26.5688 1.52588e-005 0
                    CHANNELS 3 Zrotation Xrotation Yrotation
                    End Site
                    {
                      OFFSET 0 0 0
                    }
                  }
                }
              }
            }
            JOINT LeftShoulder
            {
              OFFSET 2.38034 -1.29275 -3.7523
              CHANNELS 3 Zrotation Xrotation Yrotation
              JOINT LeftArm
              {
                OFFSET 16.3182 6.10352e-005 0
                CHANNELS 3 Zrotation Xrotation Yrotation
                JOINT LeftForeArm
                {
                  OFFSET 27.0901 0 0
                  CHANNELS 3 Zrotation Xrotation Yrotation
                  JOINT LeftHand
                  {
                    OFFSET 24.5451 1.52588e-005 0
                    CHANNELS 3 Zrotation Xrotation Yrotation
                    End Site
                    {
                      OFFSET 0 0 0
                    }
                  }
                }
              }
            }
            JOINT Neck
            {
              OFFSET 5.0226 -0.0266342 0
              CHANNELS 3 Zrotation Xrotation Yrotation
              JOINT Head
              {
                OFFSET 6.69363 2.86102e-005 0
                CHANNELS 3 Zrotation Xrotation Yrotation
                End Site
                {
                  OFFSET 0 0 0
                }
              }
            }
          }
        }
      }
    }
  }
}
MOTION
Frames:	15
Frame Time:	0.0416667
-260.212 59.5188 -237.051 119.055 -39.4641 127.007 156.218 54.5699 154.664 -125.223 34.0467 13.5156 82.4279 17.4902 4.69281 39.3028 4.01547 -0.404168 135.076 38.2117 91.8131 -115.769 1.58223 -5.53335 95.8597 -11.9013 0.689817 35.1885 0.34486 2.75815 1.61581 16.81 -92.2659 -6.72909 2.48529 -4.01879 -18.4042 2.30615 -4.12407 -40.9259 3.57765 -3.08706 -20.9133 3.57766 -3.08706 58.5375 -56.1001 -141.77 -64.1376 -13.9657 -76.6145 4.46796 -35.285 -0.441359 -29.5003 -4.45448 12.1693 -91.5176 -24.8667 68.5229 20.0823 12.601 -78.3138 8.27966 29.9093 -8.96904 14.2083 2.57607 13.9368 33.6123 -7.88547 -4.56013 10.4221 -5.53596 -0.378706 
-260.057 59.4048 -236.98 119.128 -39.2439 127.157 155.959 54.3256 154.854 -125.408 33.7753 13.4462 82.8496 17.5992 4.40747 39.0882 3.99737 -0.686731 134.956 38.0469 91.4083 -115.931 1.21505 -5.59001 95.9667 -11.984 0.634097 35.3276 0.376348 2.72613 1.62503 16.8332 -92.2709 -6.7752 2.50241 -4.02414 -18.4503 2.32303 -4.13018 -40.9723 3.59559 -3.08701 -20.9597 3.59559 -3.08703 58.2452 -56.2583 -142.044 -65.0575 -14.3745 -76.6271 3.79728 -33.9352 -1.01071 -28.6738 -4.19783 11.681 -91.2658 -24.4284 68.8366 19.5723 12.6257 -78.5595 8.26131 30.6588 -8.80291 14.2656 2.56552 13.8074 33.383 -7.37923 -4.97132 10.0484 -4.78866 0.556364 
-260.072 59.2006 -237.021 118.577 -39.3934 126.958 154.811 54.6504 155.638 -125.64 33.7 13.3688 82.7736 17.4788 4.46633 39.4188 4.0541 -0.388197 134.442 38.4726 92.0801 -116.21 1.29921 -5.5937 95.8394 -11.9112 0.41768 35.5862 0.370463 2.95585 1.63583 16.7842 -92.2935 -6.67699 2.51556 -4.06973 -18.3522 2.33415 -4.1763 -40.8736 3.62183 -3.12658 -20.861 3.62181 -3.1266 57.8653 -56.4117 -142.428 -65.7926 -14.5886 -76.5556 3.66285 -33.3672 -1.25554 -28.7696 -4.2245 11.7261 -91.3955 -24.4844 68.5982 18.7711 12.5258 -78.3462 8.02376 31.3038 -8.32209 15.0343 2.7107 13.921 33.2913 -6.96406 -4.87796 9.77251 -4.41628 0.78555 
-260.261 58.9067 -237.105 117.484 -39.8785 126.537 152.689 55.35 157.289 -125.746 33.322 13.1958 82.7189 17.1552 4.25 39.5634 4.10441 -0.379885 133.76 39.2749 93.7203 -116.422 2.03694 -5.5109 95.6756 -11.6717 0.676533 35.0181 0.23047 3.1285 1.65995 16.6951 -92.3122 -6.49808 2.55497 -4.10735 -18.1734 2.3719 -4.2156 -40.6948 3.67069 -3.15066 -20.6822 3.6707 -3.15063 58.2268 -56.2997 -142.042 -64.7595 -14.2465 -76.7566 3.97502 -34.3271 -0.917362 -28.6579 -4.2311 11.8204 -91.3266 -24.2528 68.6346 18.3772 12.6889 -78.0862 8.50085 31.1653 -8.68914 14.7259 2.65873 13.938 33.0034 -6.41434 -4.49957 10.0381 -4.1186 0.345345 
-260.575 58.6054 -237.114 116.217 -40.4218 126.046 150.173 56.0079 159.377 -125.749 32.9911 13.0306 82.8678 16.8816 3.98487 39.4013 4.00793 -0.196297 133.42 39.8974 96.2211 -116.675 4.15077 -5.28829 96.174 -11.5521 0.356351 35.4133 0.25009 3.35572 1.70992 16.6147 -92.3422 -6.33626 2.64204 -4.16 -18.0115 2.45654 -4.27203 -40.5338 3.76953 -3.17471 -20.5212 3.76955 -3.17471 58.4508 -56.2902 -141.768 -64.6252 -13.7595 -77.0277 4.37044 -34.4634 -0.545236 -29.2453 -4.35377 11.939 -91.2806 -24.7348 68.9425 18.8129 12.0971 -78.2221 8.14464 30.0594 -8.63702 18.3995 3.43542 14.8577 33.6629 -6.24795 -4.31189 9.78705 -4.03215 0.168375 
-260.802 58.1217 -237.329 114.481 -41.2901 125.428 146.499 56.9673 162.415 -126.038 32.3939 12.7684 82.8656 16.3366 3.37991 39.3861 3.90493 0.272993 131.98 41.3425 98.8156 -117.042 4.40572 -5.26091 95.4026 -11.1619 0.683761 36.3425 0.511288 2.91489 1.76789 16.4652 -92.3648 -6.03555 2.74543 -4.20274 -17.7108 2.55801 -4.31927 -40.2345 3.88099 -3.18439 -20.2218 3.88099 -3.18439 58.6907 -56.147 -141.551 -65.7037 -13.6582 -77.8584 5.33917 -33.3084 0.00597153 -29.2935 -4.27095 11.5897 -91.1747 -24.7335 69.1553 18.369 12.0223 -78.2282 7.87294 29.0526 -8.22362 20.7298 3.78479 14.5903 33.7948 -5.99287 -4.04677 9.89942 -3.92879 -0.102284 
-261.026 57.6165 -237.569 112.635 -42.3365 124.479 143.041 58.1001 165.425 -126.335 31.9375 12.4805 82.8993 16.0767 3.33522 39.4346 3.9414 0.18288 130.464 42.9759 101.634 -117.578 5.16613 -5.21913 95.3857 -11.0096 0.557705 35.9707 0.305959 3.5547 1.84327 16.3058 -92.3546 -5.71489 2.89346 -4.17808 -17.3897 2.70695 -4.30116 -39.9173 4.01479 -3.11627 -19.9047 4.01478 -3.11627 58.4707 -56.2898 -141.743 -66.1959 -13.6461 -77.4732 4.86818 -33.1966 -0.301223 -29.9086 -4.43572 11.8541 -91.1091 -24.9674 69.3901 19.3732 11.9076 -78.6342 7.78456 28.8707 -8.37862 20.0685 3.68131 14.6412 34.3563 -6.04489 -4.09889 9.81308 -3.93036 -0.0848967 
-261.252 56.9903 -237.788 110.929 -43.3102 123.609 139.084 59.0309 169.031 -126.808 31.5489 12.1999 82.734 15.5695 2.98962 39.5381 3.94873 0.331378 128.826 44.6677 104.359 -118.203 5.66954 -5.23607 94.9359 -10.6796 1.04539 34.921 0.239441 3.02429 1.892 16.1723 -92.3473 -5.44651 2.98849 -4.16447 -17.1211 2.80247 -4.29174 -39.6512 4.10134 -3.07464 -19.6385 4.10132 -3.07465 58.4989 -56.2502 -141.731 -66.4243 -13.7557 -77.2864 4.1931 -33.3302 -0.826557 -28.9328 -4.25273 11.738 -91.1954 -25.3411 69.3777 19.5713 11.6939 -78.4439 8.1216 29.0277 -8.79708 20.0242 3.64599 14.5051 34.4847 -5.96002 -3.85739 10.1684 -3.97232 -0.289583 
-261.47 56.3814 -238.083 108.694 -44.5774 122.435 134.444 60.1368 173.481 -127.189 31.1813 11.913 82.7633 15.2016 2.70729 39.4846 3.88747 0.53211 126.595 46.5463 107.868 -118.843 6.15355 -5.2503 94.525 -10.3203 1.3878 37.2338 0.901136 1.78807 1.9601 15.9738 -92.3054 -5.04758 3.13166 -4.08544 -16.7216 2.949 -4.21909 -39.2566 4.21417 -2.95601 -19.244 4.21417 -2.95603 58.6414 -56.218 -141.571 -66.0001 -13.6841 -77.1688 3.3613 -33.4957 -1.62343 -29.0418 -4.45566 12.4569 -90.8185 -24.5704 69.8074 18.4854 11.7885 -78.3611 8.74458 29.5481 -9.17905 19.5987 3.6341 14.8101 34.4294 -6.00968 -4.30631 11.1859 -3.79251 -0.00209684 
-261.713 55.7697 -238.321 106.707 -45.9081 121.208 130.161 61.0001 177.667 -127.654 30.8531 11.6146 82.4687 14.8284 2.95417 39.7641 4.02124 0.383183 124.729 48.3725 111.484 -119.404 7.03428 -5.2292 94.1479 -10.062 1.31564 37.3543 0.753941 2.58575 2.01092 15.7771 -92.25 -4.65294 3.24556 -3.98469 -16.3264 3.0672 -4.12348 -38.8661 4.29255 -2.8255 -18.8534 4.29256 -2.8255 58.7493 -56.1341 -141.485 -66.2806 -13.823 -77.6771 4.09066 -33.2501 -1.02561 -30.0955 -4.53357 12.0973 -90.8796 -24.607 69.6983 18.3819 12.0318 -77.8146 9.18114 29.4557 -9.75605 19.6756 3.63083 14.7273 34.3426 -5.95976 -3.8463 12.765 -4.0268 -0.609247 
-261.945 55.129 -238.507 105.152 -47.043 119.893 126.901 61.6566 -179.206 -127.979 30.2429 11.2921 82.4974 14.432 2.62833 39.88 4.0695 0.355337 123.074 50.1968 114.519 -120.149 7.87148 -5.26992 94.0007 -9.89567 1.4411 36.8997 0.621807 2.83648 2.03952 15.6177 -92.1705 -4.33385 3.3245 -3.83847 -16.0067 3.15248 -3.98089 -38.5509 4.32393 -2.66205 -18.5382 4.32395 -2.66206 58.6367 -56.2158 -141.578 -65.7331 -14.1881 -77.2293 3.08241 -34.3219 -1.8223 -30.3903 -4.72837 12.6464 -90.7727 -24.2984 69.7833 17.8458 12.3061 -77.7436 9.50085 29.7777 -10.0785 19.5228 3.57863 14.5951 34.6028 -6.67277 -4.29737 13.4596 -4.39481 0.0582506 
-262.091 54.5212 -238.588 103.481 -48.2144 118.507 123.613 62.1301 -175.791 -128.405 30.0576 11.0485 82.5223 14.0867 2.39343 40.1401 4.12342 0.563826 121.444 51.8911 117.612 -120.822 9.03452 -5.25032 93.9371 -9.63284 1.93435 36.4594 0.469257 3.19685 2.09796 15.4396 -92.1179 -3.97628 3.45371 -3.74169 -15.6485 3.28581 -3.88992 -38.1976 4.41811 -2.53069 -18.185 4.4181 -2.53069 58.467 -56.3247 -141.727 -65.0795 -14.7876 -76.5408 2.10318 -34.2482 -2.25372 -29.398 -4.53369 12.534 -91.1274 -25.4515 69.5612 19.2653 12.4933 -77.9216 9.38442 29.5694 -10.3533 19.1267 3.52806 14.6871 34.9799 -7.53004 -5.01815 13.8641 -4.71575 1.07324 
-262.264 54.0356 -238.634 101.634 -49.4585 116.938 120.419 62.6776 -172.107 -128.58 29.7551 10.7905 82.4581 13.5689 1.85544 40.5361 4.29937 0.411123 119.845 53.5321 120.922 -121.451 9.77216 -5.17315 93.7499 -9.56444 1.75793 36.655 0.608297 2.72026 2.1301 15.2687 -92.0085 -3.63438 3.55036 -3.53876 -15.3057 3.39131 -3.69147 -37.8605 4.44935 -2.30776 -17.8479 4.44936 -2.30775 58.2384 -56.3823 -141.979 -65.1713 -14.9241 -76.8768 2.8132 -33.8492 -1.54491 -29.9134 -4.53101 12.2084 -91.2358 -25.3246 69.2903 18.1119 12.5665 -77.5784 9.51573 30.7903 -10.0596 18.7912 3.45164 14.5882 35.1069 -8.23876 -5.38165 14.6263 -5.20143 1.10649 
-262.437 53.6438 -238.605 99.4596 -50.7359 114.929 117.385 63.3362 -168.563 -128.747 29.6747 10.5794 82.1879 13.424 2.4535 40.9193 4.6797 -0.84811 118.176 55.252 124.386 -121.828 10.7817 -5.04927 93.4278 -9.39338 2.04935 38.4022 1.15976 1.4478 2.1671 15.1055 -91.9189 -3.30786 3.65082 -3.37322 -14.9785 3.49892 -3.53056 -37.5383 4.49544 -2.11941 -17.5257 4.49545 -2.11941 58.6411 -56.3393 -141.501 -64.6312 -14.7624 -76.8469 2.89645 -34.4613 -1.59702 -29.6389 -4.53325 12.3812 -91.1983 -25.1078 69.2713 17.7074 12.4809 -77.9467 9.06077 30.8427 -9.33882 18.191 3.2489 14.0492 35.8966 -8.78416 -5.23669 14.7449 -5.72393 1.14698 
-262.559 53.4651 -238.581 97.1126 -51.9326 112.572 114.872 64.3306 -165.508 -128.661 29.7171 10.3989 81.6746 13.2808 3.25973 41.6271 5.16175 -2.1066 116.519 56.8753 127.615 -122.058 11.7464 -4.88092 93.4129 -9.41247 1.9634 37.4874 0.855106 2.2234 2.16629 14.9805 -91.7749 -3.05958 3.6959 -3.10409 -14.7294 3.55578 -3.26371 -37.2939 4.45759 -1.84888 -17.2812 4.4576 -1.84887 58.9498 -56.195 -141.198 -64.3371 -14.316 -77.2653 3.41375 -34.4263 -1.10797 -30.7394 -4.76349 12.5721 -91.172 -25.7001 69.5795 19.4079 12.2687 -78.2645 8.95009 30.3926 -9.60918 18.2152 3.40472 14.8663 37.2769 -9.05101 -4.99865 14.0097 -6.08196 0.727304 
